<svg width="156" height="165" viewBox="0 0 156 165" fill="none" xmlns="http://www.w3.org/2000/svg">
<path d="M101.018 133.934C101.56 130.197 105.783 124.442 118.339 131.318" stroke="black" stroke-width="1.5" stroke-linecap="round"/>
<path d="M110.011 109.061C110.502 105.871 110.856 99.2364 108.346 98.2198C105.836 97.2031 104.87 100.256 104.701 101.909L102.716 113.5" stroke="black" stroke-width="1.5" stroke-linecap="round"/>
<path d="M114.755 112.115C115.457 109.354 116.469 101.525 113.634 99.9283C113.102 99.6493 111.689 99.2703 110.29 99.986" stroke="black" stroke-width="1.5" stroke-linecap="round"/>
<path d="M118.838 109.825C119.467 107.394 120.5 103.524 117.785 103.316L115.656 103.316" stroke="black" stroke-width="1.5" stroke-linecap="round"/>
<path d="M119.658 105.728C121.639 105.309 122.18 108.344 122.18 109.824C122.469 112.605 122.18 120.682 118.339 131.318C117.655 133.833 116.603 139.789 117.866 143.494" stroke="black" stroke-width="1.5" stroke-linecap="round"/>
<path d="M96.502 118.867C96.714 120.48 97.9157 126.582 100.015 129.214C102.115 131.846 101.032 132.107 101.018 133.933L100.015 151.762" stroke="black" stroke-width="1.5" stroke-linecap="round"/>
<path d="M102.839 113.95L75.9726 132.277C75.5463 132.568 74.9633 132.442 74.6958 132.001C72.9349 129.095 70.8876 125.72 68.6588 122.048C56.3295 101.739 38.445 72.375 32.7483 63.3822C26.0166 52.7558 53.0957 23.0341 68.0501 8.93527C68.3971 8.60819 68.9286 8.62066 69.2738 8.9495L79.2951 18.4936" stroke="black" stroke-width="1.5" stroke-linecap="round"/>
<path d="M68.6588 122.048L57.0858 135.716C56.7064 136.164 56.0176 136.15 55.6763 135.672C41.2773 115.512 11.9215 76.3185 1.8515 69.8447C1.42038 69.5675 1.26173 69.0064 1.5154 68.561L32.5582 14.0622C32.6796 13.849 32.8818 13.6928 33.122 13.6429C36.9844 12.8409 46.0001 13.3248 54.126 21.3027" stroke="black" stroke-width="1.5" stroke-linecap="round"/>
<path d="M102.839 113.8L92.82 114.359C92.3714 114.384 91.9757 114.087 91.8876 113.646C88.9929 99.1811 81.352 68.699 72.6606 56.544C65.0694 45.9275 60.7095 40.8012 58.9155 38.9843C58.5555 38.6198 58.5145 38.0267 58.8574 37.6462C63.3963 32.6097 70.7793 25.3082 79.2951 18.4932C89.0113 10.7175 100.202 3.57507 110.326 1.15265C110.72 1.05836 111.124 1.24805 111.313 1.60666L119.418 17.0124" stroke="black" stroke-width="1.5" stroke-linecap="round"/>
<path d="M122.893 109.985C124.968 108.252 132.575 105.471 146.691 107.752C147.335 107.856 147.887 107.278 147.742 106.642C145.221 95.5967 142.165 71.014 148.062 50.7584C153.879 30.7783 155.067 12.2978 154.941 4.36131C154.931 3.74248 154.306 3.33945 153.73 3.56528L119.418 17.0127L97.7746 25.4952C97.4272 25.6314 97.1995 25.9529 97.2035 26.326C97.3801 43.0551 99.1204 80.6666 104.78 102.2" stroke="black" stroke-width="1.5" stroke-linecap="round"/>
<path d="M117.112 87.6995C123.496 85.5119 136.41 80.7768 136.999 79.3372" stroke="black" stroke-width="1.5" stroke-linecap="round"/>
<path d="M117.112 74.9968C117.007 74.0088 121.216 71.6307 131.317 68.7515" stroke="black" stroke-width="1.5" stroke-linecap="round"/>
<path d="M115.428 63.1419C123.39 60.6367 139.861 55.0547 142.05 52.7683" stroke="black" stroke-width="1.5" stroke-linecap="round"/>
<path d="M113.85 50.6513L129.423 44.0884" stroke="black" stroke-width="1.5" stroke-linecap="round"/>
<path d="M113.85 37.2079C117.919 34.6321 129.255 28.4644 142.05 24.3997" stroke="black" stroke-width="1.5" stroke-linecap="round"/>
<path d="M90.7546 49.7101L97.7072 46.7578" stroke="black" stroke-width="1.5" stroke-linecap="round"/>
<path d="M84.75 40.6422L97.1805 33.9995" stroke="black" stroke-width="1.5" stroke-linecap="round"/>
<path d="M94.547 59.1997L98.55 57.4072" stroke="black" stroke-width="1.5" stroke-linecap="round"/>
<path d="M77.7176 95.7998L82.05 90.8882" stroke="black" stroke-width="1.5" stroke-linecap="round"/>
<path d="M71.4832 86.917C72.9978 84.3393 76.5975 78.8494 81.416 76.6758" stroke="black" stroke-width="1.5" stroke-linecap="round"/>
<path d="M63.3468 73.7496L73.4909 62.4634" stroke="black" stroke-width="1.5" stroke-linecap="round"/>
<path d="M55.95 64.449L68.1018 51.6997" stroke="black" stroke-width="1.5" stroke-linecap="round"/>
<path d="M29.85 75.4897L36.1273 69.3997" stroke="black" stroke-width="1.5" stroke-linecap="round"/>
<path d="M36.1273 81.1595L40.9399 76.9595" stroke="black" stroke-width="1.5" stroke-linecap="round"/>
<path d="M40.9399 89.0347L45.9618 85.1497" stroke="black" stroke-width="1.5" stroke-linecap="round"/>
<path d="M47.3219 96.5946L51.1929 93.5496" stroke="black" stroke-width="1.5" stroke-linecap="round"/>
<path d="M51.8206 103L54.75 100.48" stroke="black" stroke-width="1.5" stroke-linecap="round"/>
</svg>
