<svg width="255" height="126" viewBox="0 0 255 126" fill="none" xmlns="http://www.w3.org/2000/svg">
<rect x="2.00059" y="101.4" width="26.8" height="23.2" rx="2.6" stroke="black" stroke-width="2.8"/>
<rect x="45.6002" y="90.1998" width="27.2" height="34.4" rx="2.6" stroke="black" stroke-width="2.8"/>
<rect x="90.401" y="74.9999" width="26" height="49.6" rx="2.6" stroke="black" stroke-width="2.8"/>
<rect x="133.4" y="59.2002" width="29.6" height="66.8" rx="4" fill="black"/>
<rect x="181.2" y="87.7999" width="26" height="36.8" rx="2.6" stroke="black" stroke-width="2.8"/>
<rect x="226.8" y="103.4" width="26.8" height="21.2" rx="2.6" stroke="black" stroke-width="2.8"/>
<rect x="112.2" y="0.399902" width="72.3999" height="46" rx="4" fill="black"/>
<path d="M148.015 51.2625C147.695 51.6463 147.106 51.6463 146.786 51.2625L140.494 43.7121C140.06 43.1911 140.43 42.4 141.108 42.4H153.692C154.371 42.4 154.741 43.1911 154.307 43.7121L148.015 51.2625Z" fill="black"/>
<rect x="132.2" y="21.5999" width="44.4" height="4.8" rx="2.4" fill="white"/>
<rect x="120.8" y="22.1999" width="4" height="4" rx="2" stroke="white" stroke-width="1.2"/>
<rect x="132.2" y="33.2" width="20.8" height="5.2" rx="2.6" fill="white"/>
<rect x="120.2" y="9.19995" width="21.2" height="4.8" rx="2.4" fill="white"/>
<rect x="120.2" y="33.2" width="5.2" height="5.2" rx="2.6" fill="white"/>
</svg>
