<svg width="194" height="145" viewBox="0 0 194 145" fill="none" xmlns="http://www.w3.org/2000/svg">
<path d="M17.8349 66.421L27.222 64.7143C27.6144 64.643 27.9457 64.3813 28.1061 64.0161L31.124 57.1419C31.3208 56.6937 31.2256 56.1709 30.8834 55.8208L23.7728 48.5448C23.2779 48.0384 23.3268 47.2158 23.8782 46.7716L36.2979 36.7669C36.8207 36.3457 37.5873 36.4354 37.9988 36.9658L45.5148 46.6531C45.9208 47.1763 46.6739 47.2718 47.1975 46.8664L51.8976 43.2276C52.2388 42.9634 52.4119 42.5363 52.3509 42.109L50.8453 31.5699C50.7421 30.847 51.303 30.2002 52.0333 30.2002H64.8497C65.5124 30.2002 66.0497 30.7375 66.0497 31.4002V39.965C66.0497 40.467 66.3621 40.9159 66.8329 41.0903L76.1864 44.5545C76.5957 44.7061 77.055 44.6235 77.3858 44.3388L84.5092 38.2095C85.0234 37.767 85.802 37.8385 86.2271 38.3672L92.9298 46.7047C93.3323 47.2054 93.2691 47.9344 92.7863 48.3583L86.08 54.2467C85.7015 54.5791 85.5708 55.1126 85.753 55.5823L88.8453 63.5572C89.0731 64.1447 89.7165 64.4559 90.3185 64.2698L98.8911 61.6201C99.6013 61.4006 100.338 61.873 100.435 62.6101L102.119 75.407C102.195 75.9821 101.848 76.529 101.296 76.7062L92.2696 79.6014C91.883 79.7254 91.5852 80.0365 91.4784 80.4283L89.3905 88.0841C89.3009 88.4126 89.355 88.7637 89.5395 89.0499L94.4359 96.6478C94.7804 97.1824 94.648 97.893 94.134 98.2676L83.9636 105.68C83.539 105.989 82.9624 105.987 82.5408 105.673L76.1 100.884C75.7071 100.592 75.176 100.567 74.7582 100.823L68.9712 104.359C68.5385 104.624 68.3187 105.132 68.4221 105.628L69.9733 113.074C70.1202 113.779 69.6171 114.454 68.8994 114.514L54.8164 115.702C54.1675 115.757 53.5933 115.284 53.5227 114.636L52.5454 105.678C52.4885 105.156 52.0985 104.731 51.5829 104.631L43.9981 103.147C43.5414 103.057 43.0741 103.24 42.7993 103.616L38.0211 110.146C37.606 110.713 36.7945 110.804 36.2645 110.342L25.6342 101.084C25.184 100.691 25.0905 100.028 25.4148 99.5267L31.0773 90.7757C31.308 90.4191 31.333 89.967 31.1431 89.5871L26.5813 80.4635C26.378 80.057 25.9625 79.8002 25.508 79.8002H18.0496C17.3869 79.8002 16.8496 79.2629 16.8496 78.6002V67.6017C16.8496 67.0217 17.2644 66.5248 17.8349 66.421Z" stroke="#191919" stroke-width="2"/>
<path d="M94.4495 97.8002L82.7653 106.469C82.3403 106.784 81.7589 106.784 81.3342 106.468L74.8998 101.684C74.5069 101.392 73.9758 101.367 73.558 101.623L67.771 105.159C67.3383 105.424 67.1185 105.932 67.2219 106.428L68.7731 113.874C68.92 114.579 68.4169 115.254 67.6992 115.314L53.6162 116.502C52.9673 116.557 52.3931 116.084 52.3225 115.436L51.3452 106.478C51.2883 105.956 50.8983 105.531 50.3827 105.431L42.7979 103.947C42.3412 103.857 41.8739 104.04 41.5991 104.416L36.8209 110.946C36.4058 111.513 35.5943 111.604 35.0643 111.142L24.434 101.884C23.9838 101.491 23.8903 100.828 24.2146 100.327L29.8771 91.5757C30.1078 91.2191 30.1328 90.767 29.9429 90.3871L25.3811 81.2635C25.1778 80.857 24.7623 80.6002 24.3078 80.6002H16.8494C16.1867 80.6002 15.6494 80.0629 15.6494 79.4002V68.4017C15.6494 67.8217 16.0642 67.3248 16.6348 67.221L26.0218 65.5143C26.4142 65.443 26.7455 65.1813 26.9059 64.8161L29.9238 57.9419C30.1206 57.4937 30.0254 56.9709 29.6832 56.6208L22.5726 49.3448C22.0777 48.8384 22.1266 48.0158 22.678 47.5716L35.0977 37.5669C35.6205 37.1457 36.3871 37.2354 36.7986 37.7658L44.3146 47.4531C44.7206 47.9763 45.4737 48.0718 45.9973 47.6664L50.7841 43.9605C51.0776 43.7332 51.2495 43.3829 51.2495 43.0116V31.2002" stroke="#191919" stroke-width="2" stroke-linecap="round"/>
<path d="M73.4496 73.0002C73.4496 80.6217 67.2712 86.8002 59.6496 86.8002C52.0281 86.8002 45.8496 80.6217 45.8496 73.0002C45.8496 65.3787 52.0281 59.2002 59.6496 59.2002C67.2712 59.2002 73.4496 65.3787 73.4496 73.0002Z" stroke="#191919" stroke-width="2"/>
<path d="M61.4496 86.6002C67.8496 85.0002 71.6496 79.8485 71.6496 73.0002C71.6496 66.1519 67.2496 59.2002 58.8496 59.2002" stroke="#191919" stroke-width="2" stroke-linecap="round"/>
<path d="M158.251 31.4001C158.251 36.3707 154.222 40.4001 149.251 40.4001C144.28 40.4001 140.251 36.3707 140.251 31.4001C140.251 26.4296 144.28 22.4001 149.251 22.4001C154.222 22.4001 158.251 26.4296 158.251 31.4001Z" stroke="#191919" stroke-width="2"/>
<path d="M150.051 40.4001C154.651 38.4001 157.251 36.0001 157.251 31.4001C156.851 26.8001 154.451 24.0001 150.051 22.4001" stroke="#191919" stroke-width="2" stroke-linecap="round"/>
<path d="M145.451 117.2C145.451 121.397 142.048 124.8 137.851 124.8C133.654 124.8 130.251 121.397 130.251 117.2C130.251 113.003 133.654 109.6 137.851 109.6C142.048 109.6 145.451 113.003 145.451 117.2Z" stroke="#191919" stroke-width="2"/>
<path d="M138.051 124.8C142.45 123.6 144.5 120.8 144.85 117.6C145.367 112.879 141.85 110.6 139.45 109.8" stroke="#191919" stroke-width="2" stroke-linecap="round"/>
<path d="M122.919 36.9976L124.924 41.4712C125.122 41.9127 125.035 42.4299 124.704 42.7828L120.004 47.7971C119.578 48.2514 119.57 48.9559 119.986 49.4193L125.561 55.6319C125.958 56.0736 126.617 56.1592 127.113 55.8332L132.673 52.1796C133.031 51.9447 133.486 51.9179 133.869 52.1092L137.787 54.0685C138.194 54.2717 138.451 54.6872 138.451 55.1418V60.6001C138.451 61.2629 138.988 61.8001 139.651 61.8001H150.451C151.114 61.8001 151.651 61.2629 151.651 60.6001V56.6369C151.651 56.1341 151.964 55.6847 152.436 55.5109L158.374 53.323C158.89 53.1331 159.468 53.3174 159.779 53.7704L163.253 58.8373C163.672 59.447 164.536 59.5373 165.071 59.0272L171.871 52.5437C172.315 52.1207 172.368 51.4314 171.995 50.945L168.536 46.4331C168.242 46.0496 168.207 45.5272 168.447 45.1076L170.956 40.7157C171.142 40.3908 171.469 40.1711 171.84 40.1216L179.157 39.146C179.775 39.0635 180.227 38.5208 180.197 37.8976L179.71 28.0082C179.678 27.3426 179.109 26.8311 178.443 26.8691L173.422 27.1561C172.952 27.1829 172.51 26.9331 172.291 26.5169L169.087 20.4297C168.831 19.9422 168.939 19.3426 169.35 18.9757L173.425 15.3371C173.892 14.9208 173.96 14.2162 173.583 13.7178L169.427 8.22514C169.007 7.6708 168.206 7.58779 167.682 8.04438L163.152 11.9892C162.739 12.3488 162.135 12.3833 161.684 12.0731L156.487 8.49985C156.209 8.3089 156.024 8.00994 155.978 7.67609L155.214 2.17522C155.124 1.52407 154.526 1.06691 153.874 1.14991L145.099 2.26668C144.5 2.34296 144.051 2.85291 144.051 3.45708V8.49496C144.051 9.03074 143.696 9.5016 143.18 9.64879L138.997 10.8441C138.651 10.9429 138.28 10.8815 137.984 10.677L131.462 6.16207C130.991 5.83558 130.354 5.88848 129.943 6.2883L124.308 11.767C123.834 12.2277 123.822 12.9847 124.28 13.4604L128.185 17.5097C128.574 17.9134 128.632 18.533 128.324 19.0017L124.606 24.6591C124.384 24.9968 124.007 25.2001 123.603 25.2001H118.677C118.086 25.2001 117.583 25.6304 117.492 26.2142L116.238 34.2084C116.135 34.8656 116.586 35.4812 117.243 35.5808L122.003 36.302C122.407 36.3632 122.752 36.6252 122.919 36.9976Z" stroke="#191919" stroke-width="2"/>
<path d="M173.052 15.4002L168.227 9.02519C167.808 8.47085 167.007 8.38784 166.482 8.84443L161.953 12.7892C161.54 13.1488 160.936 13.1834 160.485 12.8732L155.288 9.2999C155.01 9.10895 154.825 8.80999 154.779 8.47613L154.015 2.97527C153.924 2.32412 153.327 1.86696 152.675 1.94996L143.9 3.06673C143.301 3.143 142.852 3.65296 142.852 4.25712V9.29501C142.852 9.83079 142.496 10.3016 141.981 10.4488L137.797 11.6442C137.452 11.7429 137.08 11.6816 136.785 11.477L130.263 6.96212C129.792 6.63563 129.155 6.68852 128.744 7.08835L123.108 12.5671C122.635 13.0277 122.622 13.7848 123.081 14.2605L126.986 18.3097C127.375 18.7135 127.433 19.333 127.125 19.8017L123.407 25.4592C123.185 25.7968 122.808 26.0002 122.404 26.0002H117.478C116.887 26.0002 116.384 26.4304 116.292 27.0142L115.038 35.0085C114.935 35.6656 115.387 36.2812 116.044 36.3809L120.804 37.1021C121.208 37.1632 121.552 37.4253 121.719 37.7977L123.755 42.3383C123.937 42.7453 123.879 43.2198 123.603 43.5705L119.652 48.6002" stroke="#191919" stroke-width="2" stroke-linecap="round"/>
<path d="M162.703 109.389L158.418 112.048C158.066 112.267 157.851 112.653 157.851 113.068V117.988C157.851 118.478 158.15 118.92 158.606 119.102L161.929 120.431C162.464 120.645 162.772 121.209 162.662 121.775L161.64 127.029C161.53 127.593 161.037 128 160.462 128H154.451C154.074 128 153.718 128.178 153.491 128.48L151.345 131.342C151.047 131.739 151.025 132.277 151.287 132.698L154.166 137.303C154.536 137.895 154.324 138.677 153.706 139.001L147.883 142.058C147.309 142.36 146.598 142.15 146.28 141.584L143.595 136.812C143.383 136.434 142.983 136.2 142.549 136.2H136.872C136.377 136.2 135.933 136.504 135.754 136.965L133.654 142.363C133.427 142.948 132.787 143.259 132.187 143.076L125.301 140.981C124.629 140.776 124.275 140.04 124.536 139.387L126.472 134.549C126.69 134.002 126.48 133.377 125.975 133.074L121.487 130.382C121.097 130.148 120.609 130.154 120.225 130.398L117.574 132.086C116.973 132.468 116.174 132.246 115.856 131.61L112.968 125.833C112.679 125.257 112.899 124.555 113.464 124.245L118.028 121.742C118.412 121.531 118.651 121.128 118.651 120.69V115.471C118.651 115.054 118.435 114.667 118.08 114.449L114.353 112.155C113.838 111.838 113.639 111.187 113.889 110.636L116.004 105.984C116.258 105.425 116.893 105.148 117.476 105.342L121.548 106.699C122.077 106.875 122.658 106.664 122.95 106.19L125.264 102.429C125.502 102.043 125.502 101.557 125.264 101.171L123.061 97.5916C122.721 97.0392 122.882 96.3167 123.424 95.9602L128.937 92.3331C129.532 91.9414 130.336 92.1519 130.663 92.7852L132.916 97.1505C133.122 97.5495 133.533 97.8001 133.982 97.8001H140.377C140.898 97.8001 141.36 97.4642 141.519 96.9685L142.858 92.8182C143.071 92.1586 143.797 91.8158 144.442 92.0707L150.804 94.5861C151.393 94.8189 151.699 95.4691 151.505 96.0714L149.913 100.991C149.756 101.476 149.922 102.007 150.327 102.315L153.13 104.45C153.557 104.776 154.148 104.778 154.577 104.456L158.324 101.646C158.915 101.202 159.763 101.393 160.106 102.048L163.132 107.812C163.425 108.369 163.237 109.057 162.703 109.389Z" stroke="#191919" stroke-width="2"/>
<path d="M143.77 92.6001L149.972 95.2913C150.538 95.5371 150.826 96.1726 150.636 96.7603L149.09 101.557C148.934 102.041 149.099 102.57 149.503 102.879L152.193 104.935C152.621 105.262 153.214 105.265 153.644 104.941L157.235 102.238C157.827 101.792 158.677 101.984 159.02 102.64L161.935 108.212C162.226 108.768 162.039 109.455 161.507 109.787L157.374 112.361C157.022 112.58 156.808 112.965 156.808 113.38V118.151C156.808 118.641 157.106 119.082 157.561 119.265L160.753 120.546C161.287 120.76 161.594 121.323 161.485 121.888L160.499 126.973C160.39 127.537 159.896 127.945 159.321 127.945H153.518C153.139 127.945 152.783 128.123 152.556 128.427L150.488 131.194C150.192 131.59 150.169 132.127 150.431 132.546L153.207 137.004C153.576 137.596 153.365 138.376 152.748 138.701L147.14 141.655C146.564 141.958 145.852 141.748 145.534 141.18L142.946 136.565C142.734 136.186 142.334 135.951 141.9 135.951H136.444C135.936 135.951 135.484 136.271 135.313 136.749L133.651 141.419" stroke="#191919" stroke-width="2" stroke-linecap="round"/>
<path d="M92.6499 126.4C74.7833 137.667 22.2958 139.699 6.64985 97.6001C-12.7502 45.3999 35.05 15.4 52.6501 15.6C70.2501 15.8 97.8501 19.8002 111.25 59.0002C119.677 83.6522 163.85 85.8003 179.05 64.4016" stroke="#00C805" stroke-width="2.8" stroke-linecap="round" stroke-dasharray="7.2 7.2"/>
<path d="M185.017 52.9459C186.411 52.2928 187.99 53.3938 187.858 54.9278L187.233 62.2225C187.102 63.7565 185.359 64.5729 184.097 63.6921L178.092 59.5035C176.829 58.6227 176.993 56.7052 178.387 56.052L185.017 52.9459Z" fill="#00C805"/>
</svg>
