<svg width="198" height="193" viewBox="0 0 198 193" fill="none" xmlns="http://www.w3.org/2000/svg">
<path d="M0.911649 186.971C-1.15136 185.142 8.01494 185.277 12.5391 185.192C13.1906 186.107 13.6701 186.124 14.8464 186.336C15.3893 187.733 2.97466 188.8 0.911649 186.971Z" fill="black"/>
<path d="M71.4475 48.6924C71.0279 50.2107 70.7153 55.1441 72.3627 59.1924" stroke="black" stroke-width="1.25" stroke-linecap="round"/>
<path d="M70.1127 60.1845C74.0225 58.7835 81.4678 57.069 81.4678 61.9155V62.7566C81.4678 63.3244 82.1165 63.6461 82.5651 63.2984C88.8418 58.4354 101.613 48.6924 106.113 41.3174" stroke="black" stroke-width="1.25" stroke-linecap="round"/>
<path d="M87.4393 22.6924C91.2801 25.7163 97.2414 32.2433 91.4473 34.8985C91.1075 35.0541 90.92 35.4306 91.0169 35.7896C92.1569 40.0111 91.9766 48.7281 83.1329 54.6313C83.0013 54.719 82.9 54.8496 82.852 54.9996L81.1127 60.4424" stroke="black" stroke-width="1.25" stroke-linecap="round"/>
<path d="M83.6378 44.9424C83.5013 45.5424 83.8558 46.7824 86.3627 46.9424" stroke="black" stroke-width="1.25" stroke-linecap="round"/>
<path d="M90.3627 29.1924C90.3627 30.5071 89.9652 31.6632 89.3641 32.4708C88.7631 33.278 88.002 33.6924 87.2377 33.6924C86.4735 33.6924 85.7124 33.278 85.1113 32.4708C84.5103 31.6632 84.1127 30.5071 84.1127 29.1924C84.1127 27.8777 84.5103 26.7215 85.1113 25.914C85.7124 25.1067 86.4735 24.6924 87.2377 24.6924C88.002 24.6924 88.7631 25.1067 89.3641 25.914C89.9652 26.7215 90.3627 27.8777 90.3627 29.1924Z" stroke="black" stroke-width="1.25" stroke-linecap="round"/>
<path d="M75.8627 33.1924L83.6127 30.4424" stroke="black" stroke-width="1.25" stroke-linecap="round"/>
<path d="M81.8627 27.9424C82.0601 27.1092 82.7865 25.1923 84.1127 24.1924" stroke="black" stroke-width="1.25" stroke-linecap="round"/>
<path d="M87.6127 29.9424C88.165 29.9424 88.6127 29.6066 88.6127 29.1924C88.6127 28.7782 88.165 28.4424 87.6127 28.4424C87.0604 28.4424 86.6127 28.7782 86.6127 29.1924C86.6127 29.6066 87.0604 29.9424 87.6127 29.9424Z" fill="black"/>
<path d="M84.2119 111.942C83.7516 107.028 83.3832 96.1828 85.5934 92.1192C87.8035 88.0553 89.927 82.2424 91.4205 79.8908C96.4429 76.9913 108.413 65.8674 116.113 44.5674" stroke="black" stroke-width="1.25" stroke-linecap="round"/>
<path d="M70.1137 59.9424L41.3637 93.6924" stroke="black" stroke-width="1.25" stroke-linecap="round"/>
<path d="M41.3637 93.796C43.4952 93.508 49.0362 93.6477 54.1512 96.5117C60.5451 100.091 67.3146 106.387 84.1137 111.942" stroke="black" stroke-width="1.25" stroke-linecap="round"/>
<path d="M84.1127 111.942L78.3627 115.942" stroke="black" stroke-width="1.25" stroke-linecap="round"/>
<path d="M41.367 93.6924C40.9775 94.8996 40.5909 97.7153 43.8637 101.192" stroke="black" stroke-width="1.25" stroke-linecap="round"/>
<path d="M62.3637 69.1924C57.7113 73.0677 45.9141 81.2435 35.9445 82.9438C33.6184 83.9021 29.614 86.5939 32.206 89.6941C34.7981 92.7947 36.5262 96.57 37.0663 98.0699C37.4817 99.4453 38.5157 101.363 41.0081 96.9622" stroke="black" stroke-width="1.25" stroke-linecap="round"/>
<path d="M33.1137 90.9424C31.1822 92.0813 26.6782 94.2577 24.1139 93.8526C21.5496 93.4478 19.84 94.5276 19.3058 95.1181C19.0181 95.582 18.8373 96.5352 20.4153 96.6365C21.9934 96.7378 23.8673 96.6786 24.607 96.6365" stroke="black" stroke-width="1.25" stroke-linecap="round"/>
<path d="M26.6137 94.9424C25.7486 95.9116 22.8074 98.1146 17.9631 99.1721C17.0156 99.3483 15.7386 100.362 17.4688 101.551C18.9517 102.477 23.0546 101.631 25.1307 100.362" stroke="black" stroke-width="1.25" stroke-linecap="round"/>
<path d="M25.1082 100.192C23.5193 100.992 20.6594 103.122 21.9305 105.243C22.3379 105.664 24.0571 105.697 27.6748 102.465L30.3637 100.192" stroke="black" stroke-width="1.25" stroke-linecap="round"/>
<path d="M30.4982 100.241L27.7529 102.534C26.9625 104.615 25.7563 109.669 29.0008 106.866C31.3717 104.445 30.8726 102.381 31.8709 101.769C32.8692 101.158 35.1154 98.7968 36.1137 97.6924" stroke="black" stroke-width="1.25" stroke-linecap="round"/>
<path d="M30.616 96.1924C30.2834 97.2215 30.0174 99.6124 31.6137 100.942" stroke="black" stroke-width="1.25" stroke-linecap="round"/>
<path d="M60.8627 180.442C62.4353 180.026 65.6053 177.917 65.7045 172.817C65.804 167.717 67.8979 158.942 68.9323 155.192L79.1127 110.192" stroke="black" stroke-width="1.25" stroke-linecap="round"/>
<path d="M82.8627 37.6924C83.1389 37.6924 83.3627 37.5245 83.3627 37.3174C83.3627 37.1103 83.1389 36.9424 82.8627 36.9424C82.5866 36.9424 82.3627 37.1103 82.3627 37.3174C82.3627 37.5245 82.5866 37.6924 82.8627 37.6924Z" fill="black"/>
<path d="M84.4877 39.1924C84.6948 39.1924 84.8627 39.0805 84.8627 38.9424C84.8627 38.8043 84.6948 38.6924 84.4877 38.6924C84.2806 38.6924 84.1127 38.8043 84.1127 38.9424C84.1127 39.0805 84.2806 39.1924 84.4877 39.1924Z" fill="black"/>
<path d="M80.8627 40.1924C81.0008 40.1924 81.1127 39.9685 81.1127 39.6924C81.1127 39.4162 81.0008 39.1924 80.8627 39.1924C80.7247 39.1924 80.6127 39.4162 80.6127 39.6924C80.6127 39.9685 80.7247 40.1924 80.8627 40.1924Z" fill="black"/>
<path d="M43.9248 34.1098C50.0005 22.817 59.0724 21.3972 62.8491 22.0987C70.6926 10.0876 81.5243 6.12522 88.1229 9.71622C93.4019 12.5889 89.0775 19.8286 86.2554 23.0895L83.5165 19.1271C81.624 22.7923 76.2125 21.4384 73.5562 20.6129C75.8386 25.4008 79.4824 37.7753 71.8131 48.9692C64.144 60.163 54.5075 60.3609 49.6517 57.1416C45.1697 53.9635 37.8492 45.4029 43.9248 34.1098Z" fill="black"/>
<path d="M40.8637 181.942C41.6924 183.24 44.4525 185.688 48.8637 185.104" stroke="black" stroke-width="1.25" stroke-linecap="round"/>
<path d="M47.8114 94.4424C46.2472 98.9168 38.9185 108.114 32.3723 119.674C28.0082 126.924 17.6001 143.115 10.8809 149.877C9.97518 151.161 9.12703 154.078 12.9807 155.47C15.945 156.713 17.2789 159.596 17.6742 162.679C18.1682 166.532 24.4674 169.391 28.6669 166.532C32.0141 164.253 41.6387 147.841 48.9099 138.566C50.7612 136.205 52.4599 134.306 53.8637 133.222" stroke="black" stroke-width="1.25" stroke-linecap="round"/>
<path d="M49.0897 138.692L40.8637 181.942C45.0449 180.827 56.5304 178.72 63.6137 178.72" stroke="black" stroke-width="1.25" stroke-linecap="round"/>
<path d="M8.14708 178.368C1.33291 165.159 7.64959 156.369 11.0659 154.192C16.3618 155.858 16.5049 161.411 17.3637 164.048L15.3816 169.476C14.0553 171.81 14.829 176.377 15.3816 178.368C17.6725 187.594 14.2148 188.48 12.5179 186.01L8.14708 178.368Z" fill="black"/>
<path d="M44.4787 190.48C42.1834 188.663 46.7231 187.958 51.3296 187.692C52.9344 189.127 63.5936 189.617 64.1137 189.949C59.2098 191.543 46.4902 192.073 44.4787 190.48Z" fill="black"/>
<path d="M67.533 189.702C50.1299 192.088 46.5181 185.205 46.8875 181.181C49.8805 179.931 58.1107 179.476 61.9905 179.192C60.8819 181.806 62.2675 181.465 63.2375 182.175C64.4848 183.027 67.9486 184.069 69.8885 184.163C78.6178 184.589 71.7822 189.087 67.533 189.702Z" fill="black"/>
<path d="M108.528 19.3112C109.325 18.8529 110.969 18.6862 111.169 21.6862" stroke="black" stroke-width="1.25" stroke-linecap="round"/>
<path d="M106.92 27.311C107.003 26.1445 106.92 23.486 105.92 22.186C104.67 20.561 104.42 17.436 106.92 17.686C107.713 17.7654 108.218 18.4247 108.528 19.311C109 20.6583 109.02 22.5299 108.92 23.686" stroke="black" stroke-width="1.25" stroke-linecap="round"/>
<path d="M105.348 30.5609C105.247 29.4359 104.819 26.8359 103.919 25.4359C102.794 23.686 102.669 19.186 105.044 19.686" stroke="black" stroke-width="1.25" stroke-linecap="round"/>
<path d="M106.919 39.0612C106.294 39.0612 104.969 38.4612 104.669 36.0612C104.369 33.6612 103.294 32.1447 102.794 31.6862C102.503 30.9779 102.194 29.5112 103.294 29.3112C103.942 29.1934 104.708 29.8212 105.348 30.5612L106.419 32.0612" stroke="black" stroke-width="1.25" stroke-linecap="round"/>
<path d="M112.67 27.9366C112.962 27.3951 113.245 26.0116 112.045 24.8116C110.545 23.3116 110.92 21.9366 111.795 21.5616C112.67 21.1866 113.92 21.4366 115.17 25.1866C116.42 28.4366 118.27 36.6866 116.17 43.6866" stroke="black" stroke-width="1.25" stroke-linecap="round"/>
<path d="M118.38 8.37735L120.342 4.81152" stroke="black" stroke-width="1.5" stroke-linecap="round"/>
<path d="M101.419 10.0615L104.919 12.3115" stroke="black" stroke-width="1.5" stroke-linecap="round"/>
<path d="M107.77 1L111.194 8.87272" stroke="black" stroke-width="1.5" stroke-linecap="round"/>
<path d="M119.89 19.1916C119.89 16.567 120.501 12.1857 123.675 16.1537C125.629 19.0056 126.362 24.6848 124.896 27.5614" stroke="black" stroke-width="1.25" stroke-linecap="round"/>
<path d="M113.418 21.6094C113.011 20.1628 112.808 17.4679 115.25 18.2615L117.936 23.7174" stroke="black" stroke-width="1.25" stroke-linecap="round"/>
<path d="M117.936 23.7175L115.25 18.2615C115.046 16.6496 116.104 14.0456 118.669 16.1536L119.89 19.1915L121.111 22.2295" stroke="black" stroke-width="1.25" stroke-linecap="round"/>
<path d="M121.17 31.4365C120.503 32.895 119.795 36.2115 122.295 37.8115" stroke="black" stroke-width="1.25" stroke-linecap="round"/>
<path d="M124.294 29.3112C124.878 27.6447 126.644 24.3363 129.044 24.4363C131.444 24.5363 129.544 27.6862 129.044 28.8112L125.544 35.6862C124.794 37.5612 123.669 40.9362 126.294 44.8112C128.919 48.3112 137.971 57.3112 147.721 58.8112" stroke="black" stroke-width="1.25" stroke-linecap="round"/>
<path d="M145.919 111.061C146.669 113.728 149.419 119.911 154.419 123.311M138.169 106.686L148.044 109.561L138.169 106.686ZM147.544 114.561C148.628 111.019 150.019 102.236 146.919 95.4359C143.044 86.936 140.669 76.061 142.544 68.811C144.044 63.011 149.503 62.1442 152.044 62.436C156.044 62.895 162.944 67.686 162.544 80.686C162.044 96.9359 158.294 110.811 152.919 121.561L147.544 114.561Z" stroke="black" stroke-width="1.25" stroke-linecap="round"/>
<path d="M143.544 120.437C143.544 114.062 143.503 109.562 142.794 107.812C152.394 111.412 164.044 110.478 168.669 109.562C168.794 109.853 169.819 112.637 172.919 121.437C176.794 132.437 174.044 169.187 172.919 173.312C171.794 177.437 168.794 177.562 164.419 177.062C160.919 176.661 156.294 167.062 154.419 162.312C145.669 145.937 143.544 127.917 143.544 120.437Z" fill="black"/>
<path d="M177.487 87.1953C178.727 90.237 181.532 97.9703 182.832 104.57C179.248 107.112 169.17 111.937 157.17 110.437L138.17 106.687C137.42 100.395 137.332 84.3703 142.332 70.0703C142.332 68.7788 143.645 65.1615 146.545 63.5615" stroke="black" stroke-width="1.25" stroke-linecap="round"/>
<path d="M176.419 98.0612C176.366 97.2587 177.847 91.4194 177.486 87.1949C177.285 84.8392 177.028 81.9002 176.706 78.3199C175.806 68.3199 172.248 60.6535 170.581 58.07C168.914 55.4867 164.971 53.9362 161.846 55.0612" stroke="black" stroke-width="1.25" stroke-linecap="round"/>
<path d="M174.02 165.05C175.097 141.605 170.319 119.453 167.669 110.812C174.351 109.91 179.614 107.022 181.544 106.062C183.484 113.376 186.323 132.154 187.49 140.754C190.4 150.172 189.78 163.714 189.107 169.308C189.538 172.715 186.772 174.068 185.335 174.318C177.684 176.823 174.604 169.183 174.02 165.05Z" fill="black"/>
<path d="M113.169 21.1865C115.294 24.6032 118.444 32.8864 116.044 44.6864C116.253 47.2282 119.962 55.6329 122.794 59.4364C127.169 65.3114 136.294 71.9364 141.919 73.8114" stroke="black" stroke-width="1.25" stroke-linecap="round"/>
<path d="M151.952 56.8651C150.299 55.8473 137.859 56.8283 135.441 41.1806C131.3 41.2291 129.048 37.8373 132.208 36.3858C135.576 34.6491 135.323 31.4606 134.713 29.5818C133.743 27.1181 133.684 24.5313 133.893 23.9902" stroke="black" stroke-width="1.25" stroke-linecap="round"/>
<path d="M138.876 35.5558C138.285 35.5627 137.797 34.8491 137.786 33.9618C137.776 33.0745 138.247 32.3496 138.839 32.3426C139.43 32.3357 139.918 33.0494 139.928 33.9367C139.939 34.824 139.468 35.5489 138.876 35.5558Z" fill="black"/>
<path d="M141.4 30.3649C140.709 29.6266 138.923 28.5464 137.304 30.1331" stroke="black" stroke-width="1.25" stroke-linecap="round"/>
<path d="M146.093 44.7441C144.824 46.6979 143.43 47.2526 140.722 45.9919" stroke="black" stroke-width="1.25" stroke-linecap="round"/>
<path d="M156.487 31.0498C156.781 31.6958 157.027 33.1623 155.66 33.8603" stroke="black" stroke-width="1.25" stroke-linecap="round"/>
<path d="M171.061 24.4166C172.672 33.2304 167.631 39.8651 163.977 44.9656C160.074 42.8571 153.678 37.8431 156.131 37.3019C158.71 36.7331 161.429 29.6999 158.925 27.5484C155.987 25.024 153.339 28.8434 152.834 31.7394L150.468 27.6474C151.137 24.7852 151.4 19.7646 147.096 22.5792C142.793 25.3936 136.481 24.6565 133.863 23.936C128.7 20.2409 120.68 11.6217 129.897 6.70651C137.563 2.61841 147.538 7.78688 153.628 12.431C157.751 11.3426 168.864 12.3992 171.061 24.4166Z" fill="black"/>
<path d="M163.69 44.375C161.826 46.6185 160.901 48.4815 161.016 52.3407" stroke="black" stroke-width="1.25" stroke-linecap="round"/>
<path d="M175.262 191.997C159.762 192.622 152.387 189.512 152.387 187.372C152.387 186.497 151.887 185.622 155.387 184.372C153.887 186.414 154.437 190.297 168.637 189.497C170.929 189.622 176.087 189.022 178.387 185.622H179.512C190.762 182.747 197.387 185.107 197.387 187.247C197.387 189.387 188.137 191.478 175.262 191.997Z" fill="black"/>
<path d="M178.166 185.567C186.539 186.367 187.595 179.651 187.076 176.192" stroke="black" stroke-width="1.25" stroke-linecap="round"/>
<path d="M167.076 179.442C167.076 179.984 166.951 181.167 166.451 181.567C165.826 182.067 154.576 180.817 154.826 186.442C154.701 187.234 155.951 188.442 158.951 188.817C163.171 189.345 175.266 190.885 178.167 185.567C178.335 185.258 178.473 184.925 178.576 184.567L179.701 179.817" stroke="black" stroke-width="1.25" stroke-linecap="round"/>
</svg>
