<svg width="274" height="156" viewBox="0 0 274 156" fill="none" xmlns="http://www.w3.org/2000/svg">
<path d="M197.021 55.2994C203.422 43.6298 198.417 38.9407 195.405 36.6963C195.761 45.5336 189.483 50.1703 186.3 51.3839L186.841 54.4672C187.077 52.8135 194.191 53.7399 197.021 55.2994Z" fill="#191919"/>
<path d="M158.335 51.6881C162.488 55.6331 166.047 55.5771 167.668 55.7598C173.174 54.4707 174.87 54.6366 177.079 55.2811L176.636 49.0233C173.638 46.8575 171.94 43.4358 171.244 41.7818C170.462 42.4426 169.447 42.1912 169.037 41.9829C168.508 41.6392 167.495 40.3463 167.668 37.9228C167.841 35.4992 169.6 36.1499 170.46 36.7781L174.747 37.2402C174.567 33.2333 177.037 31.8963 178.294 31.7285C177.305 29.5089 179.073 28.5377 180.004 28.1562C181.338 29.7915 183.086 30.4504 183.826 30.7568C191.351 32.7254 195.945 30.0302 198.064 26.6662C200.366 23.2703 199.994 15.2961 193.483 13.3548C191.354 12.5355 186.307 11.8638 183.15 15.7309C173.856 12.3154 169.457 22.0905 168.25 25.6402L166.855 28.8768C154.743 31.4532 153.677 42.9088 155.805 47.9258C156.77 50.2005 156.896 50.321 158.272 51.6275L158.335 51.6881Z" fill="#191919"/>
<path d="M174.768 37.3028C175.252 40.053 177.623 41.8666 180.001 41.4487C182.38 41.0309 183.991 38.5178 183.508 35.7676C183.025 33.0174 180.654 31.2037 178.276 31.6215C175.896 32.0395 174.286 34.5526 174.768 37.3028Z" stroke="#191919" stroke-width="0.703125"/>
<path d="M186.482 36.9277C186.965 39.678 189.336 41.4916 191.715 41.0737C194.093 40.6559 195.705 38.1428 195.221 35.3926C194.739 32.6424 192.368 30.8287 189.988 31.2465C187.61 31.6643 185.999 34.1775 186.482 36.9277Z" stroke="#191919" stroke-width="0.703125"/>
<path d="M186.384 35.8948L183.479 36.0746" stroke="#191919" stroke-width="0.703125" stroke-linecap="round"/>
<path d="M184.758 38.7266C185.61 40.914 187.351 42.7396 185.426 44.1249" stroke="#191919" stroke-width="0.703125" stroke-linecap="round"/>
<path d="M192.666 40.6367C191.914 40.7687 191.198 40.2666 191.066 39.5154C190.934 38.7641 191.436 38.0481 192.188 37.9161C192.939 37.7841 193.655 38.2862 193.787 39.0374C193.919 39.7887 193.417 40.5047 192.666 40.6367Z" fill="#191919"/>
<path d="M181.134 40.9796C180.383 41.1116 179.667 40.6095 179.535 39.8582C179.403 39.107 179.905 38.391 180.656 38.259C181.408 38.127 182.124 38.629 182.256 39.3803C182.388 40.1316 181.886 40.8476 181.134 40.9796Z" fill="#191919"/>
<path d="M169.375 38.437C169.228 38.8369 169.084 39.7596 169.695 40.2508" stroke="#191919" stroke-width="0.703125" stroke-linecap="round"/>
<path d="M194.061 30.4818C195.796 33.7918 197.356 41.8793 190.428 48.8548C183.503 55.8303 176.078 49.2882 173.23 45.1451L171.216 41.6659C170.381 42.4048 168.547 43.0699 167.9 39.8178C167.255 36.5658 168.529 36.1237 169.247 36.3092C169.637 36.3966 170.491 36.7828 170.787 37.6278" stroke="#191919" stroke-width="0.703125" stroke-linecap="round"/>
<path d="M174.753 37.1186L169.996 36.6455" stroke="#191919" stroke-width="0.703125" stroke-linecap="round"/>
<path d="M179.853 36.3447C179.101 36.4517 177.606 37.0533 177.632 38.6033" stroke="#191919" stroke-width="0.703125" stroke-linecap="round"/>
<path d="M193.342 35.4391C192.77 35.1873 191.368 34.8869 190.348 35.7008" stroke="#191919" stroke-width="0.703125" stroke-linecap="round"/>
<path d="M87.4092 128.547L89.0967 125.664M83.3311 126.156L85.0186 128.547L83.3311 126.156ZM86.2139 128.547V125.664V128.547Z" stroke="#191919" stroke-width="0.703125" stroke-linecap="round"/>
<path d="M193.722 152.855C198.386 150.653 209.739 146.386 217.839 146.949C218.988 146.996 220.722 147.483 218.472 149.058C216.222 150.633 215.097 151.449 214.816 151.659C213.644 152.644 212.495 154.725 217.277 155.175C223.253 155.738 240.128 149.62 273.527 154.12" stroke="#191919" stroke-width="0.703125" stroke-linecap="round"/>
<path d="M67.7217 147.65C69.8751 146.645 75.1164 144.696 78.8561 144.953C79.3862 144.974 80.187 145.196 79.1482 145.916C78.1094 146.635 77.59 147.007 77.4602 147.104C76.9191 147.553 76.389 148.504 78.5963 148.71C81.3555 148.966 89.1463 146.173 104.565 148.228" stroke="#191919" stroke-width="0.703125" stroke-linecap="round"/>
<path d="M186.039 47.8985C185.543 47.3607 184.005 46.5296 181.821 47.5074" stroke="#191919" stroke-width="0.703125" stroke-linecap="round"/>
<path d="M176.776 55.3514C170.097 53.9451 157.469 56.1248 152.237 75.5311C145.698 99.7889 173.191 104.148 183.526 96.8358C185.449 95.0076 186.339 90.9295 179.308 89.242C170.519 87.1326 167.395 88.6092 163.98 75.5311" stroke="#191919" stroke-width="0.703125" stroke-linecap="round"/>
<path d="M202.622 136.07C199.912 134.607 200.683 131.417 201.477 129.844C201.52 129.758 201.636 129.746 201.703 129.814C204.632 132.801 208.2 131.3 209.681 130.128C209.709 130.106 209.742 130.095 209.777 130.098C211.817 130.253 216.178 131.331 217.739 134.453C219.708 138.391 206.137 137.969 202.622 136.07Z" fill="#191919"/>
<path d="M192.989 140.289C182.358 139.783 181.481 134.266 182.372 131.57C186.534 136.239 190.997 134.125 192.708 132.484C194.677 133.216 196.795 134.478 197.489 135.156C200.513 138.109 197.841 140.781 192.989 140.289Z" fill="#191919"/>
<path d="M165.527 80.5234C167.355 75.4609 171.925 69.4843 178.816 69.9765C184.328 70.3703 186.381 72.1562 187.253 74.3359C188.209 76.7265 188.308 78.0624 189.433 87.6953" stroke="#191919" stroke-width="0.703125" stroke-linecap="round"/>
<path d="M195.269 113.641C196.605 118.398 197.786 128.955 191.823 133.117C184.37 138.32 175.792 126.789 172.206 107.594" stroke="#191919" stroke-width="0.703125" stroke-linecap="round"/>
<path d="M187.675 75.1092C188.917 72.8827 193.525 68.5704 199.487 71.6641C202.041 72.9896 206.237 78.625 207.644 89.0312" stroke="#191919" stroke-width="0.703125" stroke-linecap="round"/>
<path d="M197.097 54.9297C204.198 58.1641 208.066 62.1719 212.003 74.4766C214.91 81.9062 218.528 97.75 209.753 101.687C207.152 102.695 202.553 102.447 205.816 94.5156C206.568 92.6875 208.066 91.3516 207.573 88.6094" stroke="#191919" stroke-width="0.703125" stroke-linecap="round"/>
<path d="M197.205 102.518C196.136 102.366 194.366 102.009 193.275 101.505C192.701 101.241 192.316 100.937 192.316 100.602C192.316 99.626 193.85 99.9048 194.616 100.166C196.502 100.776 200.005 101.729 198.011 99.6387C196.017 97.548 197.436 97.0661 202.23 98.5063L203.867 99.1423" stroke="#191919" stroke-width="0.703125" stroke-linecap="round"/>
<path d="M193.275 101.505C192.583 101.822 192.119 102.487 193.882 103.215C194.646 103.53 195.827 103.857 197.589 104.173" stroke="#191919" stroke-width="0.703125" stroke-linecap="round"/>
<path d="M195.671 105.127C195.831 106 197.25 107.525 201.424 106.09C203.003 105.547 203.214 105.419 204.55 104.654C205.191 104.22 206.354 103.304 206.5 102.473" stroke="#191919" stroke-width="0.703125" stroke-linecap="round"/>
<path d="M193.882 103.215C193.322 103.692 193.104 104.618 195.671 105.127C196.232 105.239 196.927 105.33 197.78 105.393" stroke="#191919" stroke-width="0.703125" stroke-linecap="round"/>
<path d="M194.944 97.2407C194.675 98.1832 193.692 99.986 191.912 99.6569C189.687 99.2456 185.009 98.1957 183.597 97.9787" stroke="#191919" stroke-width="0.703125" stroke-linecap="round"/>
<path d="M197.706 93.4954C198.422 94.6808 198.05 95.4419 196.184 96.5618C195.762 96.8148 195.345 97.0408 194.944 97.2408C193.571 97.9262 192.393 98.3069 191.887 98.4269" stroke="#191919" stroke-width="0.703125" stroke-linecap="round"/>
<path d="M196.939 91.4968C197.732 91.2166 198.943 91.2494 197.706 93.4953C197.658 93.5821 197.502 93.7543 196.866 94.271L193.576 96.4701" stroke="#191919" stroke-width="0.703125" stroke-linecap="round"/>
<path d="M185.355 92.0019C185.91 90.4128 187.444 88.6079 189.316 87.8875C191.05 87.2206 191.887 88.205 191.261 88.8461C189.573 90.2441 189.694 92.1978 190.843 92.2183C191.994 92.2388 194.253 90.2505 195.241 89.2538C195.731 88.6872 196.841 87.991 197.344 89.7394C197.513 90.3225 197.322 90.925 196.939 91.4965C196.176 92.6385 194.649 93.657 193.698 94.1518" stroke="#191919" stroke-width="0.703125" stroke-linecap="round"/>
<path d="M178.065 55.079C179.742 56.015 183.487 57.3254 185.035 55.079C186.972 52.2708 188.716 55.6014 187.941 57.7565C187.166 59.9115 180.592 63.4986 176.176 55.6306" stroke="#191919" stroke-width="0.703125" stroke-linecap="round"/>
<path d="M180.995 60.1663C179.635 60.846 177.044 63.0069 177.55 66.2131" stroke="#191919" stroke-width="0.703125" stroke-linecap="round"/>
<path d="M182.435 64.4553C180.381 67.1882 178.041 67.7503 177.128 67.6897" stroke="#191919" stroke-width="0.703125" stroke-linecap="round"/>
<path d="M184.37 60.3772C185.566 61.3851 187.534 64.0897 186.691 67.6897" stroke="#191919" stroke-width="0.703125" stroke-linecap="round"/>
<path d="M181.909 60.7288C181.757 61.5798 181.79 63.0242 182.435 64.4553C182.979 65.665 183.961 66.8652 185.636 67.6897" stroke="#191919" stroke-width="0.703125" stroke-linecap="round"/>
<path d="M211.019 101.617C213.409 117.93 214.605 129.039 207.292 131.289C199.98 133.539 197.167 121.164 195.269 113.641L193.722 106.68" stroke="#191919" stroke-width="0.703125" stroke-linecap="round"/>
<path d="M154.558 92.6875C152.987 106.586 156.302 133.834 182.12 131.641" stroke="#191919" stroke-width="0.703125" stroke-linecap="round"/>
<path d="M6.05772 119.336C-20.6094 99.2467 55.6749 100.328 78.2685 97.8906L78.2687 114.133L132.691 128.969C65.0502 135.297 27.1515 135.227 6.05772 119.336Z" fill="#191919"/>
<path d="M158.214 1L78.6201 2.40624L132.69 9.50781H183.245H228.527L158.214 1Z" stroke="#191919" stroke-width="0.703125" stroke-linecap="round"/>
<path d="M78.6201 2.40625V113.852L132.69 128.617V106.328V9.50781" stroke="#191919" stroke-width="0.703125" stroke-linecap="round"/>
<path d="M132.69 106.328L154.347 105.906" stroke="#191919" stroke-width="0.703125" stroke-linecap="round"/>
<path d="M132.69 128.617L164.402 127.281" stroke="#191919" stroke-width="0.703125" stroke-linecap="round"/>
<path d="M183.245 9.50781V16.0469" stroke="#191919" stroke-width="0.703125" stroke-linecap="round"/>
<path d="M228.527 9.50781V124.82H212.566" stroke="#191919" stroke-width="0.703125" stroke-linecap="round"/>
<path d="M138.145 145V140.359" stroke="#191919" stroke-width="0.703125" stroke-linecap="round"/>
<path d="M134.067 142.891L136.598 145" stroke="#191919" stroke-width="0.703125" stroke-linecap="round"/>
<path d="M139.973 145L141.802 142.047" stroke="#191919" stroke-width="0.703125" stroke-linecap="round"/>
<path d="M248.395 115.187V111.391" stroke="#191919" stroke-width="0.703125" stroke-linecap="round"/>
<path d="M245.02 113.5L247.13 115.188" stroke="#191919" stroke-width="0.703125" stroke-linecap="round"/>
<path d="M249.802 115.188L251.348 112.656" stroke="#191919" stroke-width="0.703125" stroke-linecap="round"/>
</svg>
