<svg width="145" height="143" viewBox="0 0 145 143" fill="none" xmlns="http://www.w3.org/2000/svg">
<path d="M82.1422 119.989C87.5944 122.768 98.8986 123.076 102.458 109.8" stroke="black" stroke-width="2.03235" stroke-linecap="round"/>
<path d="M78.6256 116.58C83.3431 116.611 94.4024 114.433 100.9 105.47" stroke="black" stroke-width="2.03235" stroke-linecap="round"/>
<path d="M75.582 113.16C80.7613 113.325 93.1032 111.163 101.037 101.187" stroke="black" stroke-width="2.03235" stroke-linecap="round"/>
<path d="M63.5426 97.7279C68.9112 99.5355 71.3084 103.832 73.1617 107.604C73.8655 109.036 75.3457 109.93 76.9307 109.741C86.4789 108.602 93.7486 103.839 97.6427 100.225C98.984 98.9807 98.9936 96.9711 98.1347 95.3553C94.971 89.4027 95.6189 83.9978 96.4718 81.8175C100.821 70.3215 101.126 56.6352 97.2564 50.4398C86.7664 33.6468 57.6833 31.3832 45.475 48.6375C22.9138 80.5234 60.134 96.5803 63.5426 97.7279Z" stroke="black" stroke-width="2.03235" stroke-linecap="round"/>
<path d="M63.4623 86.4228C61.5674 82.7037 57.5793 73.5462 55.9429 62.8703C55.9273 62.7687 55.95 62.6659 56.0084 62.5814C59.6988 57.2368 66.3676 50.9051 70.1492 47.6053C70.4629 47.3316 70.9408 47.6618 70.8185 48.0598C68.27 56.3539 69.4837 65.3288 70.6696 69.7791C70.7664 70.1424 71.2656 70.1723 71.4395 69.8389C74.0863 64.7632 79.8373 60.3124 83.1408 58.2429C83.4444 58.0527 83.813 58.333 83.7305 58.6816C80.0181 74.3734 80.448 87.8733 81.2746 93.8871C81.3293 94.2847 80.8425 94.5197 80.5786 94.2173C76.272 89.2818 73.7429 82.5889 72.8264 79.1507C72.7457 78.8479 72.3686 78.7351 72.1404 78.9499L64.0951 86.5271C63.8995 86.7114 63.5843 86.6623 63.4623 86.4228Z" stroke="#00C805" stroke-width="2.03235" stroke-linecap="round"/>
<path d="M50.037 110.198L53.5031 104.349" stroke="black" stroke-width="2.03235" stroke-linecap="round"/>
<path d="M43.619 96.5526L35.2723 105.752" stroke="#00C805" stroke-width="2.03235" stroke-linecap="round"/>
<path d="M28.3289 94.0409C29.2687 93.5988 33.7156 90.2415 35.8216 88.6181" stroke="black" stroke-width="2.03235" stroke-linecap="round"/>
<path d="M32.0843 80.6726L19.1797 85.2658" stroke="#00C805" stroke-width="2.03235" stroke-linecap="round"/>
<path d="M28.4516 68.8811L18.1299 69.3062" stroke="black" stroke-width="2.03235" stroke-linecap="round"/>
<path d="M33.0192 57.2401L19.3291 53.554" stroke="#00C805" stroke-width="2.03235" stroke-linecap="round"/>
<path d="M37.0765 48.5813L21.8135 39.5177" stroke="black" stroke-width="2.03235" stroke-linecap="round"/>
<path d="M46.5317 39.7043L39.8281 31.0445" stroke="#00C805" stroke-width="2.03235" stroke-linecap="round"/>
<path d="M59.0483 32.762L53.8486 21.7073" stroke="black" stroke-width="2.03235" stroke-linecap="round"/>
<path d="M72.3924 28.5949L73.0734 20.8916" stroke="#00C805" stroke-width="2.03235" stroke-linecap="round"/>
<path d="M87.6498 31.5441L94.1278 18.3718" stroke="black" stroke-width="2.03235" stroke-linecap="round"/>
<path d="M99.9025 36.75L106.254 31.4422" stroke="#00C805" stroke-width="2.03235" stroke-linecap="round"/>
<path d="M105.183 47.9774L117.457 40.5169" stroke="black" stroke-width="2.03235" stroke-linecap="round"/>
<path d="M110.469 56.6716L118.607 55.1639" stroke="#00C805" stroke-width="2.03235" stroke-linecap="round"/>
<path d="M110.681 66.2749L120.382 66.5637" stroke="black" stroke-width="2.03235" stroke-linecap="round"/>
<path d="M108.936 76.7993L116.612 78.8842" stroke="#00C805" stroke-width="2.03235" stroke-linecap="round"/>
</svg>
