<svg width="108" height="76" viewBox="0 0 108 76" fill="none" xmlns="http://www.w3.org/2000/svg">
<path d="M13.5557 1.18115L34.5557 18.4312" stroke="#191919" stroke-width="1.25" stroke-linecap="round"/>
<path d="M20.1807 20.6812L29.5557 25.1812" stroke="#191919" stroke-width="1.25" stroke-linecap="round"/>
<path d="M1.05566 33.3062C11.3069 33.3062 17.0544 33.3062 27.3057 33.3062" stroke="#191919" stroke-width="1.25" stroke-linecap="round"/>
<path d="M19.3057 46.8062L29.5557 43.6812" stroke="#191919" stroke-width="1.25" stroke-linecap="round"/>
<path d="M8.18066 65.4312L34.5557 50.9312" stroke="#191919" stroke-width="1.25" stroke-linecap="round"/>
<path d="M67.5557 34.1812C67.5557 39.9639 66.2583 45.1683 64.1922 48.9048C62.1141 52.663 59.3438 54.8062 56.4307 54.8062C53.5175 54.8062 50.7472 52.663 48.6691 48.9048C46.6031 45.1683 45.3057 39.9639 45.3057 34.1812C45.3057 28.3984 46.6031 23.1941 48.6691 19.4576C50.7472 15.6993 53.5175 13.5562 56.4307 13.5562C59.3438 13.5562 62.1141 15.6993 64.1922 19.4576C66.2583 23.1941 67.5557 28.3984 67.5557 34.1812Z" stroke="#191919" stroke-width="1.25"/>
<ellipse cx="55.4307" cy="34.1812" rx="2" ry="3.75" fill="#191919"/>
<path d="M102.181 37.9312C102.981 35.5312 102.514 32.0145 102.181 30.5562L106.056 31.9312C107.656 33.8312 106.722 35.7228 106.056 36.4312L102.181 37.9312Z" fill="#191919"/>
<path d="M106.056 31.9312L58.623 13.9312" stroke="#191919" stroke-width="1.25" stroke-linecap="round"/>
<path d="M59.8057 53.8062L106.056 36.4312" stroke="#191919" stroke-width="1.25" stroke-linecap="round"/>
<path d="M55.3057 37.1812L66.8057 41.3062" stroke="#191919" stroke-width="1.25" stroke-linecap="round"/>
<path d="M55.3057 31.1812L66.8057 27.5562" stroke="#191919" stroke-width="1.25" stroke-linecap="round"/>
<path d="M85.8057 68.5562C82.9307 69.3062 80.6807 68.1812 80.3057 67.5562C80.1955 68.3546 79.7151 70.9516 80.1807 72.6812C80.4197 73.5692 81.1271 74.1365 81.8057 74.3062C82.4902 74.4773 83.4751 74.3027 84.0557 73.5562C85.1714 72.1214 85.6686 69.3783 85.8057 68.5562Z" fill="#191919"/>
<path d="M82.5556 45.4312L80.1806 68.1812C80.0027 70.8062 79.0556 73.6812 81.5556 74.4312C84.6081 75.3469 84.9306 72.5562 85.5556 69.6812L88.1806 55.9312L90.6806 42.3062" stroke="#191919" stroke-width="1.25" stroke-linecap="round"/>
<path d="M106.056 31.9312C106.681 32.6395 107.556 34.5312 106.056 36.4312" stroke="#191919" stroke-width="1.25" stroke-linecap="round"/>
<path d="M101.931 30.4312C102.389 31.8895 102.806 35.1812 101.931 37.9312" stroke="#191919" stroke-width="1.25" stroke-linecap="round"/>
</svg>
