<svg width="200" height="186" viewBox="0 0 200 186" fill="none" xmlns="http://www.w3.org/2000/svg">
<path d="M190.006 155.581C193.198 158.828 197.29 165.923 188.125 168.331" stroke="black" stroke-width="1.275" stroke-linecap="round"/>
<path d="M190.165 162.466C189.621 159.623 187.384 154.26 182.558 152.538C181.765 152.255 180.902 152.07 179.965 152.011" stroke="black" stroke-width="1.275" stroke-linecap="round"/>
<path d="M184.578 135.946C178.234 140.168 167.814 151.278 176.895 161.942C185.975 172.605 189.526 173.54 190.166 172.675" stroke="black" stroke-width="1.275" stroke-linecap="round"/>
<path d="M191.696 144.361L182.516 152.521" stroke="black" stroke-width="1.275" stroke-linecap="round"/>
<path d="M182.516 135.181C183.078 135.245 183.797 135.45 184.604 135.845C186.823 136.929 189.708 139.441 191.852 144.358C192.467 145.768 193.021 147.377 193.481 149.206" stroke="black" stroke-width="1.275" stroke-linecap="round"/>
<path d="M183.537 132.631C187.55 133.141 195.82 135.487 196.797 140.791" stroke="black" stroke-width="1.275" stroke-linecap="round"/>
<path d="M185.066 129.891C187.066 129.33 191.956 128.686 195.521 130.591" stroke="black" stroke-width="1.275" stroke-linecap="round"/>
<path d="M138.244 64.5323C138.062 65.5462 137.639 66.3875 137.135 66.9327C136.625 67.484 136.102 67.6704 135.675 67.5939C135.248 67.5176 134.823 67.1614 134.536 66.4673C134.252 65.7811 134.147 64.8452 134.328 63.8313C134.51 62.8175 134.933 61.9762 135.437 61.431C135.947 60.8797 136.47 60.6933 136.897 60.7698C137.324 60.8461 137.749 61.2023 138.037 61.8964C138.32 62.5826 138.425 63.5185 138.244 64.5323Z" stroke="black" stroke-width="1.275"/>
<path d="M0.882812 67.9972L30.6965 60.6741M23.1401 6.11426L39.2762 28.6535L23.1401 6.11426ZM24.5194 27.0756L32.5682 33.984L24.5194 27.0756ZM2.3438 34.4652C12.4438 37.1715 18.1064 38.6888 28.2065 41.3951L2.3438 34.4652ZM16.7605 52.584L27.6842 52.2112L16.7605 52.584Z" stroke="black" stroke-width="1.275" stroke-linecap="round"/>
<path d="M67.6338 52.8834C66.1071 58.5808 63.4551 63.3659 60.4331 66.5016C57.3935 69.656 54.0982 71.036 51.2281 70.267C48.3579 69.4979 46.1942 66.6551 45.139 62.4038C44.0899 58.1769 44.1856 52.7069 45.7122 47.0094C47.2387 41.312 49.8909 36.5269 52.9129 33.3912C55.9525 30.2368 59.2476 28.8568 62.1179 29.6258C64.9879 30.3947 67.1516 33.2377 68.207 37.489C69.2561 41.7159 69.1604 47.1859 67.6338 52.8834Z" stroke="black" stroke-width="1.275"/>
<path d="M54.6956 53.3768C55.7839 53.6684 57.1093 52.2506 57.6561 50.2101C58.2028 48.1696 57.7638 46.2791 56.6756 45.9875C55.5873 45.6959 54.2618 47.1136 53.7151 49.1541C53.1683 51.1946 53.6073 53.0852 54.6956 53.3768Z" fill="black"/>
<path d="M100.756 65.7186C102.178 63.5651 102.646 59.9773 102.703 58.4524L106.158 60.8303C107.233 63.1245 105.814 64.742 104.97 65.2637L100.756 65.7186Z" fill="black"/>
<path d="M54.8145 70.1726L104.969 65.2636M106.157 60.8302L63.7731 30.3337L106.157 60.8302Z" stroke="black" stroke-width="1.275" stroke-linecap="round"/>
<path d="M54.7715 52.6049L65.0128 59.7048M56.3555 46.6935L68.6427 46.1577L56.3555 46.6935Z" stroke="black" stroke-width="1.275" stroke-linecap="round"/>
<path d="M108.612 135.04L98.225 145.513C89.7363 153.13 84.1322 147.272 80.6895 144.138C77.1197 139.112 71.5098 132.834 71.5098 111.827C71.5098 98.6945 74.6973 92.296 87.5747 97.141" stroke="black" stroke-width="1.275" stroke-linecap="round"/>
<path d="M106.157 60.8301C106.585 61.693 106.948 63.7878 104.969 65.2638" stroke="black" stroke-width="1.275" stroke-linecap="round"/>
<path d="M102.488 58.2634C102.554 59.8212 102.096 63.1742 100.508 65.6526" stroke="black" stroke-width="1.275" stroke-linecap="round"/>
<path d="M130.033 81.4822C121.235 81.4822 101.346 86.0722 93.1855 104.815" stroke="black" stroke-width="1.275" stroke-linecap="round"/>
<path d="M70.5456 82.1758C69.9639 82.9211 69.3331 84.7441 71.0819 86.4205C71.2114 86.5447 71.3539 86.6681 71.5108 86.7903C73.7818 88.5605 74.8997 86.9504 75.1746 85.924" stroke="black" stroke-width="1.275" stroke-linecap="round"/>
<path d="M77.4844 82.7278C78.1696 84.5056 76.8395 84.9707 76.0888 84.9809C75.9108 84.9603 75.6966 84.9269 75.4561 84.8787C74.1406 84.6148 72.0424 83.9122 70.8108 82.5108C70.7096 82.3955 70.6221 82.2841 70.5469 82.1759C69.5401 80.7283 70.7695 79.9141 71.5697 79.6782" stroke="black" stroke-width="1.275" stroke-linecap="round"/>
<path d="M72.887 76.7313C72.1452 76.7086 70.7728 77.036 71.2177 78.528C71.6627 80.02 75.4186 81.8976 77.2411 82.6498C77.3204 82.6799 77.4017 82.7062 77.4841 82.7279C78.2302 82.9247 79.0607 82.7554 79.3282 81.7571C79.7061 80.3464 78.028 79.3848 77.6394 79.1928" stroke="black" stroke-width="1.275" stroke-linecap="round"/>
<path d="M78.322 73.6986C77.5471 73.7988 76.6602 74.6788 78.0973 76.0143C79.5348 77.35 78.8091 78.449 78.2667 78.8315C77.4558 79.2303 75.2125 79.0957 72.7271 75.3674C70.2413 71.639 76.0635 71.2894 79.2854 71.5809" stroke="black" stroke-width="1.275" stroke-linecap="round"/>
<path d="M84.5472 78.5354C83.4484 77.0531 81.1466 74.7732 80.7294 77.5126C80.3122 80.2518 81.8822 81.9134 82.7194 82.4017" stroke="black" stroke-width="1.275" stroke-linecap="round"/>
<path d="M81.7084 91.1063C81.1564 90.2105 80.512 87.5914 82.349 84.282" stroke="black" stroke-width="1.275" stroke-linecap="round"/>
<path d="M81.4797 67.8137L78.3164 75.6782" stroke="black" stroke-width="1.275" stroke-linecap="round"/>
<path d="M84.25 79.6439L90.3101 66.8799" stroke="black" stroke-width="1.275" stroke-linecap="round"/>
<path d="M73.1363 89.6011C72.5092 91.941 70.5758 94.723 72.841 96.122C75.6067 97.83 76.6611 95.1655 78.0358 92.4979L81.9139 84.4292" stroke="black" stroke-width="1.275" stroke-linecap="round"/>
<path d="M86.5547 76.6372C87.9146 81.4396 87.9572 91.2762 87.9572 110.784" stroke="black" stroke-width="1.275" stroke-linecap="round"/>
<path d="M171.1 127.382C177.334 142.3 168.792 155.432 171.1 180.295C155.63 184.885 121.401 190.163 108.243 174.557C107.648 171.837 108.243 156.452 108.243 146.507" stroke="black" stroke-width="1.275" stroke-linecap="round"/>
<path d="M157.969 105.07L155.921 101.926C153.925 98.8634 150.041 97.6404 146.65 99.0077L141.77 100.975C138.726 102.203 135.238 101.351 133.101 98.859L127.496 92.3196" stroke="black" stroke-width="1.275" stroke-linecap="round"/>
<path d="M129.79 81.9706C128.643 78.6556 129.688 76.4246 130.708 75.9998C136.828 81.6098 146.11 79.5272 149.553 76.1273C150.777 77.2493 150.063 80.5681 149.553 81.5881C142.923 88.9321 133.488 84.8179 129.79 81.9706Z" fill="black"/>
<path d="M112.21 29.8494C115.015 39.9219 116.418 40.8144 120.498 45.2769C120.498 40.8667 121.255 33.4643 121.255 30.3819C134.614 30.3819 145.889 24.9283 149.856 22.2016C149.714 31.4488 158.383 37.4951 158.383 37.4951C158.383 37.4951 157.14 41.2295 156.429 49.5877C155.861 56.274 157.495 54.9819 158.383 53.4999C160.941 45.2486 165.134 47.4536 166.91 49.5877C188.71 14.167 155.186 7.32301 148.791 7.97504C143.959 3.84935 137.22 0.616234 132.483 0.142019C115.398 -1.56825 107.662 13.5173 112.21 29.8494Z" fill="black"/>
<path d="M158.086 59.8047C155.791 73.8157 140.387 83.8907 129.271 72.5407C118.155 61.1909 120.379 40.4155 121.567 30.7207" stroke="black" stroke-width="1.275" stroke-linecap="round"/>
<path d="M167.16 48.7197C168.563 52.1622 167.247 59.7905 158.082 59.7905" stroke="black" stroke-width="1.275" stroke-linecap="round"/>
<path d="M163.12 50.6104C163.322 51.347 163.16 53.0925 160.889 54.1803" stroke="black" stroke-width="1.275" stroke-linecap="round"/>
<path d="M121.876 58.0056C118.885 56.7587 116.776 52.1406 117.587 44.7456" stroke="black" stroke-width="1.275" stroke-linecap="round"/>
<path d="M128.585 49.0355C127.736 48.6942 127.404 47.5296 127.844 46.4341C128.284 45.3387 129.329 44.7273 130.179 45.0686C131.028 45.4099 131.36 46.5745 130.92 47.67C130.48 48.7654 129.434 49.3768 128.585 49.0355Z" fill="black"/>
<path d="M144.182 49.4751C143.321 49.1666 142.919 48.0864 143.286 47.0625C143.652 46.0386 144.648 45.4587 145.51 45.7673C146.372 46.0758 146.773 47.156 146.407 48.1798C146.04 49.2037 145.044 49.7837 144.182 49.4751Z" fill="black"/>
<path d="M150.945 44.4906C150.542 43.3057 148.806 41.1137 145.08 41.8246" stroke="black" stroke-width="1.275" stroke-linecap="round"/>
<path d="M133.095 42.1955C132.207 41.4259 129.79 40.3482 127.23 42.1955" stroke="black" stroke-width="1.275" stroke-linecap="round"/>
<path d="M135.339 47.7163C135.042 50.2342 133.093 55.6213 136.408 55.6213" stroke="black" stroke-width="1.275" stroke-linecap="round"/>
<path d="M149.922 80.5894C175.294 80.5894 207.042 107.237 197.145 140.514" stroke="black" stroke-width="1.275" stroke-linecap="round"/>
<path d="M168.873 117.459C170.021 118.691 172.571 122.1 173.591 125.874C174.611 129.648 177.501 132.291 178.818 133.141" stroke="black" stroke-width="1.275" stroke-linecap="round"/>
</svg>
