<svg width="153" height="141" viewBox="0 0 153 141" fill="none" xmlns="http://www.w3.org/2000/svg">
<path d="M23.2375 104.5V93.1446V79.6943C23.2375 76.4277 23.6998 73.5775 19.7677 73.3533C15.8356 73.1292 13.9632 77.5806 7.2224 76.0434C3.66485 75.2322 0.668979 71.624 0.668976 67.3967C0.66897 60.0951 8.5936 55.6895 16.21 60.4794C23.2375 64.8988 23.2375 56.6364 23.2375 53.9463V36.25C23.2375 35.8358 23.5733 35.5 23.9875 35.5H49.8259C55.0687 35.8843 51.8856 41.8409 50.3876 45.4917C47.3917 52.7934 51.4487 56.8926 54.3197 57.9814C64.4308 60.4794 66.865 49.719 63.4946 45.4917C58.8863 39.7117 60.1242 36.0764 62.3711 36.0764H87.2166C87.6523 36.0764 87.9979 36.4443 87.9823 36.8798C87.8676 40.0946 88.0234 47.6553 88.0234 55.0992C88.0234 65.0909 97.011 61.8244 97.011 62.0166C97.011 62.2087 110.479 58.4286 111.616 68.9339C112.365 75.8513 105.062 80.2706 97.011 77.7726C90.5699 75.7742 89.5213 78.1571 89.5213 80.2706V104.5C89.5213 104.914 89.1855 105.25 88.7713 105.25H61.1073C60.8457 105.25 60.5996 105.111 60.4689 104.884C57.0739 98.9909 60.3015 96.2758 62.1839 91.6074C64.4308 86.0352 61.9751 81.3945 58.2518 80.2706C53.3835 78.8011 44.7703 81.4236 48.328 91.6074C51.0714 99.4605 50.9493 105.25 46.4555 105.25H23.9875C23.5733 105.25 23.2375 104.914 23.2375 104.5Z" fill="black"/>
<path d="M87.581 37H109.143C111.768 37 116.556 34.6076 114.956 25.005C113.268 14.8794 121.32 14.9637 124.706 16.1916C126.456 16.8172 129.431 19.4559 127.331 25.005C124.706 31.9415 126.393 37.381 131.831 37.381H150.581C150.995 37.381 151.331 37.7168 151.331 38.131V103.555C151.331 103.972 150.998 104.309 150.581 104.306C146.995 104.273 131.642 104.147 128.831 104.312C125.643 104.5 126.197 107.978 128.081 112.375C130.893 118.938 127.987 126.945 118.518 125.312C113.081 124.375 110.831 118.562 113.081 112.375C115.331 106.188 112.706 104.312 110.268 104.312C105.316 104.312 93.7315 104.25 88.794 104.312" stroke="black" stroke-width="1.875" stroke-linecap="round"/>
<path d="M90.4815 125.5C91.669 127.562 94.119 132.025 94.419 133.375" stroke="black" stroke-width="1.875" stroke-linecap="round"/>
<path d="M85.794 126.625C85.169 128.312 84.8565 133.337 88.6065 139.938" stroke="black" stroke-width="1.875" stroke-linecap="round"/>
<path d="M78.669 125.5C76.2315 127.75 71.244 133 70.794 136" stroke="black" stroke-width="1.875" stroke-linecap="round"/>
<path d="M86.544 15.4375C88.9815 13.1875 93.969 7.9375 94.419 4.9375" stroke="black" stroke-width="1.875" stroke-linecap="round"/>
<path d="M79.419 14.3125C80.044 12.625 80.3565 7.6 76.6065 1" stroke="black" stroke-width="1.875" stroke-linecap="round"/>
<path d="M74.7315 15.4375C73.544 13.375 71.094 8.9125 70.794 7.5625" stroke="black" stroke-width="1.875" stroke-linecap="round"/>
</svg>
