<svg width="303" height="112" viewBox="0 0 303 112" fill="none" xmlns="http://www.w3.org/2000/svg">
<path d="M49.7218 104.751C57.7762 89.6491 58.3515 67.8643 57.6324 58.8597C43.2496 35.128 31.0242 53.2863 31.0242 53.2863C25.0912 60.0137 12.2905 81.2711 8.55099 112.482" stroke="white" stroke-width="1.79785" stroke-linecap="round"/>
<path d="M225.877 106.078C221.706 87.8121 224.139 70.8999 225.877 64.727C234.687 35.6019 254.302 41.9442 254.302 53.2704L256.279 84.0136" stroke="white" stroke-width="1.79785" stroke-linecap="round"/>
<path d="M66.2621 14.0351C68.2996 11.9603 74.4277 4.66435 70.7567 1.51799C66.9812 -1.71793 59.2504 11.1069 57.9919 15.0022C53.6172 19.2571 46.9531 26.0408 37.3166 42.8687" stroke="white" stroke-width="1.79785" stroke-linecap="round"/>
<path d="M77.9481 11.0516C75.3515 10.921 71.1169 11.6317 66.2621 14.0351C63.2656 16.0355 56.6256 21.6183 54.0367 27.9467" stroke="white" stroke-width="1.79785" stroke-linecap="round"/>
<path d="M95.7469 12.2794C92.028 10.5983 85.209 9.15476 77.9481 11.0515C72.6894 12.4252 67.1989 15.5511 62.4866 21.608" stroke="white" stroke-width="1.79785" stroke-linecap="round"/>
<path d="M60.3291 54.5087C62.3667 51.9917 69.8578 47.7128 83.5214 50.7332C89.4544 52.6356 101.428 55.2988 101.86 50.7332C103.118 45.1599 89.9937 35.9908 83.5214 38.8674C77.0492 41.7439 76.6896 34.1929 80.1055 29.6983C83.5214 25.2037 87.6565 14.9559 94.1288 22.3271C96.2862 25.7138 95.7468 32.0354 100.421 35.1378C105.49 38.502 109.411 34.0131 107.073 30.777C105.006 27.9148 104.205 28.006 104.793 23.5876C104.87 23.0103 104.971 22.3559 105.096 21.6079C104.603 18.3019 102.009 13.9294 95.7468 12.2793C90.5735 10.9161 81.364 13.2042 74.3524 20.0361" stroke="white" stroke-width="1.79785" stroke-linecap="round"/>
<path d="M178.635 19.8565C178.627 16.7103 180.231 12.0745 185.28 9.28037C192.472 4.77532 210.774 -0.746931 226.451 13.2044C242.128 27.1558 245.448 35.5246 245.149 37.9651" stroke="white" stroke-width="1.79785" stroke-linecap="round"/>
<path d="M178.635 19.8563C178.627 16.7101 180.231 12.0743 185.28 9.2801C189.175 7.12453 202.539 4.32514 209.731 9.96794" stroke="white" stroke-width="1.79785" stroke-linecap="round"/>
<path d="M224.275 57.2021C224.395 53.2468 222.118 47.3857 212.769 50.5499C201.083 54.5052 180.048 53.0669 179.868 43.8978C179.724 36.5625 192.873 36.8862 199.465 37.9649C203.78 38.5642 210.719 37.4615 203.959 28.2565C195.51 16.7502 191.096 17.6988 187.437 24.7104C185.28 28.8455 185.28 29.9242 182.044 29.9242C176.769 29.9242 176.392 25.0204 177.531 22.5034C177.795 21.6822 178.162 20.7835 178.635 19.8563C181.815 13.63 187.438 6.1925 203.959 14.2828" stroke="white" stroke-width="1.79785" stroke-linecap="round"/>
<path d="M52.5984 20.0361C49.1825 16.2007 42.1349 12.5571 33.3614 20.0362C22.3945 29.3851 31.0242 57.9709 10.5286 52.3975C8.67084 51.978 4.16422 50.0962 1 45.9253" stroke="white" stroke-width="1.79785" stroke-linecap="round"/>
<path d="M79.5662 30.9572C89.0948 30.464 90.8927 37.6554 100.242 41.2511" stroke="white" stroke-width="1.79785" stroke-linecap="round"/>
<path d="M155.956 34.7786C153.619 35.3179 150.383 36.3007 146.428 36.0371C143.731 35.8573 142.832 40.7115 146.788 40.7115C149.484 40.5317 153.979 39.9923 156.316 38.9136" stroke="white" stroke-width="1.79785" stroke-linecap="round"/>
<path d="M156.694 43.7678C152.379 43.8877 144.828 43.3239 144.828 46.6444C144.828 51.139 150.401 49.521 158.312 47.7231" stroke="white" stroke-width="1.79785" stroke-linecap="round"/>
<path d="M116.063 33.1607C117.261 31.4827 119.443 29.7392 121.456 33.7664C123.47 37.7936 122.295 47.3038 121.816 51.319C121.456 54.0158 117.86 52.7573 116.962 50.5999" stroke="white" stroke-width="1.79785" stroke-linecap="round"/>
<path d="M185.1 32.4414C179.502 26.8743 164.943 26.6464 156.225 29.1471C155.837 29.2586 155.552 29.5871 155.49 29.9868C153.955 39.9566 157.03 48.5534 159.055 52.1663C159.245 52.5066 159.615 52.6985 160.005 52.675C169.324 52.1134 176.467 47.9726 179.376 45.5802C179.685 45.3257 179.795 44.9125 179.741 44.5155C179.23 40.7719 183.065 38.6771 185.445 37.9361C185.779 37.832 186.062 37.5921 186.165 37.2578C186.876 34.9674 186.121 33.4566 185.1 32.4414Z" fill="white"/>
<path d="M186.359 34.4193C189.235 32.142 196.966 28.1268 204.877 30.2843" stroke="white" stroke-width="1.79785" stroke-linecap="round"/>
<path d="M242.452 29.3848C248.564 26.3283 253.778 25.6093 262.947 31.9019C273.86 39.3911 293.391 33.1005 302.5 28.1264" stroke="white" stroke-width="1.79785" stroke-linecap="round"/>
<path d="M99.7021 40.7117C97.9762 50.2043 109.53 52.3378 115.523 52.2179C121.995 52.8755 123.973 30.6437 113.006 32.2617C111.176 32.5318 109.564 32.9579 108.152 33.4838C106.174 36.3968 103.582 35.7923 102.219 37.103C100.81 38.4584 100.016 39.7955 99.7021 40.7117Z" fill="white"/>
<path d="M147.035 69.1177L151.53 71.9942" stroke="white" stroke-width="1.79785" stroke-linecap="round"/>
<path d="M133.552 67.3196C133.552 69.1774 134.055 73.5402 136.069 76.1291" stroke="white" stroke-width="1.79785" stroke-linecap="round"/>
<path d="M121.326 65.7017C120.068 67.3797 118.306 71.2391 121.326 73.2526" stroke="white" stroke-width="1.79785" stroke-linecap="round"/>
<path d="M145.202 18.0717C145.656 15.6682 146.934 10.3033 148.41 8.07192" stroke="white" stroke-width="1.79785" stroke-linecap="round"/>
<path d="M132.958 17.609C132.341 16.1118 131.559 12.2612 133.361 8.83628" stroke="white" stroke-width="1.79785" stroke-linecap="round"/>
<path d="M121.603 20.0757C121.165 19.4071 120.406 17.1447 120.88 13.4436" stroke="white" stroke-width="1.79785" stroke-linecap="round"/>
</svg>
