<svg width="209" height="88" viewBox="0 0 209 88" fill="none" xmlns="http://www.w3.org/2000/svg">
<path d="M1.64986 50.9322C19.5519 54.6038 11.1575 79.2461 24.2784 85.8037C39.9389 93.631 45.3315 49.5613 43.2938 30.8559C42.7098 22.6542 33.1584 19.0062 31.8699 30.8559C30.5012 43.443 46.122 92.252 64.0243 73.4179L75.9774 59.59C79.2987 55.4981 85.8463 49.8134 91.3795 59.59C96.9123 69.3662 105.729 66.1356 109.446 63.2979L121.125 54.8041" stroke="#191919" stroke-width="1.8" stroke-linecap="round"/>
<path d="M112.616 17.2171L206.059 1.38815C206.725 1.27528 207.125 2.103 206.623 2.55525L163.061 41.7868C163.011 41.8318 162.959 41.8679 162.897 41.8934C159.109 43.4523 144.19 37.5386 136.488 34.0728C136.109 33.9023 135.667 34.1088 135.554 34.5084C133.709 41.0177 131.448 47.0588 130.342 49.774C130.223 50.0675 129.897 50.2389 129.657 50.0324C127.42 48.1112 127.14 35.8417 127.304 29.053C127.312 28.7063 127.059 28.4119 126.717 28.3509C120.997 27.3287 113.123 22.2215 109.8 19.712" stroke="#191919" stroke-width="1.8" stroke-linecap="round"/>
<path d="M136.125 34.0748C145.923 29.4304 170.711 17.7981 191.475 8.4248" stroke="#191919" stroke-width="1.8" stroke-linecap="round"/>
<path d="M130.05 50.2746L148.275 39.4746" stroke="#191919" stroke-width="1.8" stroke-linecap="round"/>
<path d="M134.1 24.6254L159.075 16.5254" stroke="#191919" stroke-width="1.8" stroke-linecap="round"/>
</svg>
