<svg width="211" height="148" viewBox="0 0 211 148" fill="none" xmlns="http://www.w3.org/2000/svg">
<path d="M131.02 61.8303C137.127 95.0483 118.525 125.079 89.8313 129.184C61.138 133.289 32.73 109.984 26.6229 76.766C20.5158 43.548 39.1181 13.5177 67.8114 9.41262C96.5047 5.30758 124.913 28.6124 131.02 61.8303Z" stroke="white" stroke-width="2.13481"/>
<path d="M119.152 62.9151C123.84 88.4141 110.234 111.232 89.2177 114.239C68.2014 117.245 47.1174 99.3906 42.4294 73.8916C37.7414 48.3925 51.3477 25.5747 72.3641 22.5679C93.3804 19.5612 114.464 37.4161 119.152 62.9151Z" stroke="white" stroke-width="2.13481"/>
<ellipse rx="20.0736" ry="24.0316" transform="matrix(0.98992 -0.141624 0.180819 0.983516 84.4774 68.9129)" fill="#00C805"/>
<path d="M38.2203 123.005C74.5729 153.87 115.016 135.832 123.65 116.39C119.805 135.783 93.7546 146.785 72.0737 147.256C48.217 147.256 18.4532 129.819 10.2737 113.985C-19.8262 55.7181 26.0269 14.707 48.899 8.96155C5.95694 26.7996 -0.850227 89.8312 38.2203 123.005Z" fill="white"/>
<path d="M84.1152 63.6776L148.869 27.1563L161.82 19.9846" stroke="white" stroke-width="2.13397" stroke-linecap="round"/>
<path d="M147.279 24.1936L148.754 15.2727C148.826 14.8375 149.117 14.4699 149.524 14.3L174.678 3.79819C175.852 3.30821 176.944 4.64379 176.232 5.69717L171.453 12.7616C170.904 13.5723 171.431 14.6736 172.407 14.755L183.022 15.6408C184.266 15.7447 184.641 17.3872 183.564 18.0204L162.291 30.5308C161.991 30.7077 161.631 30.7542 161.295 30.6595L148.87 27.1564" stroke="white" stroke-width="2.13397" stroke-linecap="round"/>
<path d="M86.6156 67.8869L167.674 42.2768L182.058 37.6987" stroke="white" stroke-width="2.13542" stroke-linecap="round"/>
<path d="M166.834 39.0831L170.428 30.6376C170.602 30.229 170.974 29.9266 171.414 29.8367L198.515 24.296C199.785 24.0365 200.545 25.5352 199.598 26.4283L193.195 32.462C192.468 33.1473 192.724 34.3106 193.659 34.5736L203.839 37.4365C205.033 37.7724 205.011 39.4317 203.807 39.8483L179.982 48.0892C179.641 48.2071 179.272 48.1845 178.962 48.0266L167.674 42.2765" stroke="white" stroke-width="2.13542" stroke-linecap="round"/>
<path d="M149.878 59.6542L154.667 52.6144C154.916 52.2485 155.338 52.015 155.789 51.9946L180.296 50.8841C181.607 50.8247 182.096 52.3947 180.994 53.1232L174.562 57.3737C173.727 57.9257 173.76 59.0768 174.622 59.4873L182.63 63.2973C183.734 63.8223 183.402 65.4063 182.141 65.6302L159.833 69.5937C159.457 69.6606 159.078 69.5742 158.793 69.3564L150.001 62.6418" stroke="white" stroke-width="2.13827" stroke-linecap="round"/>
<path d="M87.9771 72.0957L149.998 62.6417L163.595 60.5691" stroke="white" stroke-width="2.13827" stroke-linecap="round"/>
</svg>
