<svg width="214" height="234" viewBox="0 0 214 234" fill="none" xmlns="http://www.w3.org/2000/svg">
<path d="M12.875 178.772C15 172.772 14.1023 167.451 12.875 160.179C11.3409 151.09 8.78409 130.683 21.7386 117.649C32.1023 107.222 43.8977 101.872 48.5 100.5" stroke="black" stroke-width="2.5" stroke-linecap="round"/>
<path d="M39 178.522C39.741 175.926 47.0269 164.638 46.1006 157.022C45.7672 154.856 46.0006 149.872 50.6006 147.272" stroke="black" stroke-width="2.5" stroke-linecap="round"/>
<path d="M34.8506 127.523C38.3506 121.773 47.8506 114.273 55.3506 113.023C62.8505 111.773 63.5138 116.871 62.5467 119.036C61.0962 122.283 57.9391 125.872 51.625 132.708C45.3697 139.48 41.9547 152.019 41.5565 158" stroke="black" stroke-width="2.5" stroke-linecap="round"/>
<path d="M158.797 107.287C153.937 103.116 141.849 95.7333 132.379 99.5732C131.521 99.916 129.737 101.527 129.463 105.23" stroke="black" stroke-width="2.5" stroke-linecap="round"/>
<path d="M148.601 143.272C139.101 132.522 133.601 124.022 134.851 113.272C135.547 107.28 138.998 104.81 142.157 107.801C146.351 111.772 149.601 116.772 154.166 118.772C155.061 119.189 157.901 120.022 162.101 120.022" stroke="black" stroke-width="2.5" stroke-linecap="round"/>
<path d="M183.5 167.286C183.043 165.457 182.093 159.606 182.642 154.943C183.328 149.115 182.707 127.115 173.101 120.772" stroke="black" stroke-width="2.5" stroke-linecap="round"/>
<path d="M182.1 109.272L122.933 105.012C122.821 105.004 122.704 105.016 122.597 105.046C113.622 107.524 117.453 112.489 120.619 115.086C120.769 115.209 120.954 115.282 121.147 115.299L134.601 116.522" stroke="black" stroke-width="2.5" stroke-linecap="round"/>
<path d="M181.85 121.272L162.092 119.978" stroke="black" stroke-width="2.5" stroke-linecap="round"/>
<ellipse cx="181.75" cy="115.25" rx="5.25" ry="7.25" fill="black"/>
<path d="M175.106 120.081C171.504 115.058 174.232 111.057 176.306 109.469C176.478 109.336 176.694 109.278 176.911 109.288L182.854 109.564C183.405 109.59 183.831 110.057 183.806 110.608L183.378 120.21C183.353 120.786 182.847 121.221 182.274 121.16L175.79 120.473C175.518 120.444 175.265 120.303 175.106 120.081Z" fill="black"/>
<path d="M113.496 108.154L116.382 107.238C117.072 107.019 117.759 107.584 117.678 108.303L117.403 110.746C117.323 111.464 116.529 111.862 115.905 111.497L113.294 109.971C112.546 109.533 112.67 108.416 113.496 108.154Z" fill="black"/>
<path d="M50.3942 114.022L48 47.9909C47.9997 38.2454 49.8128 21.7298 70.0614 22.0034C90.3099 22.2769 101.301 22.1173 104.265 22.0034" stroke="black" stroke-width="2.5" stroke-linecap="round"/>
<path d="M127.523 22.0034H161.556C170.962 22.1744 179 26.2777 179 42.007C179 57.7363 178.535 90.6184 177.851 107.773" stroke="black" stroke-width="2.5" stroke-linecap="round"/>
<path d="M149.351 189.272C135.327 190.298 97.8233 193.031 75.1918 194C65.6148 194 52.9252 192.769 51.4203 175.535L50.3942 134.331" stroke="black" stroke-width="2.5" stroke-linecap="round"/>
<circle cx="115.75" cy="14.25" r="6.5" stroke="black" stroke-width="2.5"/>
<path d="M105.146 18.4816C106.373 22.0306 104.635 24.6241 100.716 25.4773C98.8414 25.8853 96.2172 25.9209 91.1733 27.6954C84.8685 29.9135 83.6757 36.2267 83.5053 41.6868C83.3689 46.0549 85.8909 47.4881 90.3213 47.6587C103.215 47.6019 130.831 48 138.204 48C145.872 48 146.987 45.0993 147.235 43.2224C148.462 33.9403 145.19 30.2193 142.293 28.8898C140.93 28.2641 136.943 26.7057 131.899 25.4773C126.855 24.2488 125.947 22.5766 126.446 20.1878C127.673 14.3182 126.957 9.55206 126.446 7.90268C125.878 5.62765 122.561 1.28235 113.837 2.10136C102.931 3.12512 103.613 14.0453 105.146 18.4816Z" stroke="black" stroke-width="2.5" stroke-linecap="round"/>
<path d="M164.851 106.522L165.5 43.2725C165.5 41.9071 164.727 39.5176 161.574 39.5176C158.33 39.5176 151.046 39.6314 147.746 39.5176" stroke="black" stroke-width="2.5" stroke-linecap="round"/>
<path d="M82.7047 39.5177H66.9992C65.2921 39.347 62.0144 40.337 62.5607 45.6622C63.1069 50.9874 65.7473 133.562 66.9992 174.184C66.9423 176.232 67.8528 180.26 71.9498 179.987C75.0667 179.779 123.57 177.048 152.601 175.772" stroke="black" stroke-width="2.5" stroke-linecap="round"/>
<path d="M169.601 107.272L170.5 44.446C170.5 42.5648 169.681 39.8285 165.037 40.5126" stroke="black" stroke-width="2.5" stroke-linecap="round"/>
<path d="M63.9686 40C62.2614 40 58.3349 40 58.5054 44.4463C58.6692 48.7196 60.2126 92.4783 60.7248 112.772" stroke="black" stroke-width="2.5" stroke-linecap="round"/>
<path d="M60.7248 122.602L62.2613 175.959C62.432 177.84 63.1149 180.577 71.3097 179.893" stroke="black" stroke-width="2.5" stroke-linecap="round"/>
<path d="M80.5 69H112.5" stroke="black" stroke-width="2.5" stroke-linecap="round"/>
<path d="M80.7144 80.3525L149.8 80.0105" stroke="black" stroke-width="2.5" stroke-linecap="round"/>
<path d="M80.8853 91.8096L135.094 91.2966" stroke="black" stroke-width="2.5" stroke-linecap="round"/>
<path d="M81.4061 109.605L108.075 108.398" stroke="black" stroke-width="2.5" stroke-linecap="round"/>
<path d="M171.601 108.522C170.351 110.856 167.601 114.022 170.601 120.022" stroke="black" stroke-width="2.5" stroke-linecap="round"/>
<path d="M131.851 136.321C130.184 138.305 129.251 143.973 138.851 150.773C143.601 153.856 153.451 163.223 154.851 176.023" stroke="black" stroke-width="2.5" stroke-linecap="round"/>
<path d="M129.35 116.272C128.457 117.947 128.065 121.171 130.851 124.259C132.223 125.78 134.366 127.268 137.6 128.522" stroke="black" stroke-width="2.5" stroke-linecap="round"/>
<path d="M130.851 124.259C129.063 126.844 127.434 132.145 131.851 136.321C132.994 137.403 136.794 139.409 138.851 140.273" stroke="black" stroke-width="2.5" stroke-linecap="round"/>
<path d="M165.568 219.776C160.234 207.36 152.768 180.476 165.568 172.276C181.568 162.026 202.318 185.276 209.568 205.276" stroke="black" stroke-width="2.5" stroke-linecap="round"/>
<path d="M2.5 210.022C3.75 198.356 12.45 174.544 27.25 177.544C42.05 180.544 46.0833 207.294 46.25 220.294" stroke="black" stroke-width="2.5" stroke-linecap="round"/>
</svg>
